<mxfile host="app.diagrams.net" agent="Mozilla/5.0 (Windows NT 10.0; Win64; x64) AppleWebKit/537.36 (KHTML, like Gecko) Chrome/140.0.0.0 Safari/537.36" version="28.2.0">
  <diagram name="Page-1" id="4T5zf0UmqMF30QkCbVcs">
    <mxGraphModel dx="1892" dy="561" grid="1" gridSize="10" guides="1" tooltips="1" connect="1" arrows="1" fold="1" page="1" pageScale="1" pageWidth="850" pageHeight="1100" math="0" shadow="0">
      <root>
        <mxCell id="0" />
        <mxCell id="1" parent="0" />
        <mxCell id="BweIx_ij9CedRMp09utN-3" style="edgeStyle=orthogonalEdgeStyle;rounded=0;orthogonalLoop=1;jettySize=auto;html=1;entryX=0;entryY=0.5;entryDx=0;entryDy=0;" edge="1" parent="1" source="BweIx_ij9CedRMp09utN-1" target="BweIx_ij9CedRMp09utN-2">
          <mxGeometry relative="1" as="geometry" />
        </mxCell>
        <mxCell id="BweIx_ij9CedRMp09utN-1" value="" style="verticalLabelPosition=bottom;sketch=0;aspect=fixed;html=1;verticalAlign=top;strokeColor=none;align=center;outlineConnect=0;shape=mxgraph.citrix.browser;" vertex="1" parent="1">
          <mxGeometry x="40" y="80" width="52.41" height="80" as="geometry" />
        </mxCell>
        <mxCell id="BweIx_ij9CedRMp09utN-2" value="&lt;b&gt;browser cache&lt;/b&gt;" style="ellipse;whiteSpace=wrap;html=1;fillColor=#dae8fc;gradientColor=#7ea6e0;strokeColor=#6c8ebf;" vertex="1" parent="1">
          <mxGeometry x="150" y="85" width="110" height="70" as="geometry" />
        </mxCell>
        <mxCell id="BweIx_ij9CedRMp09utN-8" style="edgeStyle=orthogonalEdgeStyle;rounded=0;orthogonalLoop=1;jettySize=auto;html=1;" edge="1" parent="1" source="BweIx_ij9CedRMp09utN-4" target="BweIx_ij9CedRMp09utN-7">
          <mxGeometry relative="1" as="geometry" />
        </mxCell>
        <mxCell id="BweIx_ij9CedRMp09utN-4" value="" style="image;aspect=fixed;html=1;points=[];align=center;fontSize=12;image=img/lib/azure2/compute/OS_Images_Classic.svg;" vertex="1" parent="1">
          <mxGeometry x="328" y="85" width="97.03" height="90" as="geometry" />
        </mxCell>
        <mxCell id="BweIx_ij9CedRMp09utN-5" style="edgeStyle=orthogonalEdgeStyle;rounded=0;orthogonalLoop=1;jettySize=auto;html=1;entryX=-0.012;entryY=0.364;entryDx=0;entryDy=0;entryPerimeter=0;" edge="1" parent="1" source="BweIx_ij9CedRMp09utN-2" target="BweIx_ij9CedRMp09utN-4">
          <mxGeometry relative="1" as="geometry" />
        </mxCell>
        <mxCell id="BweIx_ij9CedRMp09utN-6" value="&lt;b&gt;OS&lt;/b&gt;" style="text;html=1;align=center;verticalAlign=middle;resizable=0;points=[];autosize=1;strokeColor=none;fillColor=none;" vertex="1" parent="1">
          <mxGeometry x="356.52" y="190" width="40" height="30" as="geometry" />
        </mxCell>
        <mxCell id="BweIx_ij9CedRMp09utN-10" style="edgeStyle=orthogonalEdgeStyle;rounded=0;orthogonalLoop=1;jettySize=auto;html=1;entryX=0;entryY=0.5;entryDx=0;entryDy=0;" edge="1" parent="1" source="BweIx_ij9CedRMp09utN-7" target="BweIx_ij9CedRMp09utN-9">
          <mxGeometry relative="1" as="geometry" />
        </mxCell>
        <mxCell id="BweIx_ij9CedRMp09utN-7" value="&lt;b&gt;OS cache&lt;/b&gt;" style="ellipse;whiteSpace=wrap;html=1;fillColor=#d5e8d4;gradientColor=#97d077;strokeColor=#82b366;" vertex="1" parent="1">
          <mxGeometry x="490" y="80" width="110" height="70" as="geometry" />
        </mxCell>
        <mxCell id="BweIx_ij9CedRMp09utN-12" style="edgeStyle=orthogonalEdgeStyle;rounded=0;orthogonalLoop=1;jettySize=auto;html=1;entryX=0.5;entryY=0;entryDx=0;entryDy=0;" edge="1" parent="1" source="BweIx_ij9CedRMp09utN-9" target="BweIx_ij9CedRMp09utN-11">
          <mxGeometry relative="1" as="geometry" />
        </mxCell>
        <mxCell id="BweIx_ij9CedRMp09utN-9" value="&lt;b&gt;ISP DNS Resolver&lt;/b&gt;" style="rounded=0;whiteSpace=wrap;html=1;fillColor=#e6d0de;gradientColor=#d5739d;strokeColor=#996185;" vertex="1" parent="1">
          <mxGeometry x="660" y="80" width="130" height="70" as="geometry" />
        </mxCell>
        <mxCell id="BweIx_ij9CedRMp09utN-14" style="edgeStyle=orthogonalEdgeStyle;rounded=0;orthogonalLoop=1;jettySize=auto;html=1;entryX=1;entryY=0.5;entryDx=0;entryDy=0;" edge="1" parent="1" source="BweIx_ij9CedRMp09utN-11" target="BweIx_ij9CedRMp09utN-13">
          <mxGeometry relative="1" as="geometry" />
        </mxCell>
        <mxCell id="BweIx_ij9CedRMp09utN-11" value="&lt;b&gt;DNS cache&lt;/b&gt;" style="ellipse;whiteSpace=wrap;html=1;fillColor=#d5e8d4;gradientColor=#97d077;strokeColor=#82b366;" vertex="1" parent="1">
          <mxGeometry x="670" y="280" width="110" height="70" as="geometry" />
        </mxCell>
        <mxCell id="BweIx_ij9CedRMp09utN-18" style="edgeStyle=orthogonalEdgeStyle;rounded=0;orthogonalLoop=1;jettySize=auto;html=1;" edge="1" parent="1" source="BweIx_ij9CedRMp09utN-13" target="BweIx_ij9CedRMp09utN-17">
          <mxGeometry relative="1" as="geometry" />
        </mxCell>
        <mxCell id="BweIx_ij9CedRMp09utN-13" value="&lt;b&gt;Root Servers&lt;/b&gt;" style="rounded=1;whiteSpace=wrap;html=1;fillColor=#fff2cc;gradientColor=#ffd966;strokeColor=#d6b656;" vertex="1" parent="1">
          <mxGeometry x="460" y="285" width="120" height="60" as="geometry" />
        </mxCell>
        <mxCell id="BweIx_ij9CedRMp09utN-15" value="&lt;b&gt;facebook.com&lt;/b&gt;" style="text;html=1;align=center;verticalAlign=middle;resizable=0;points=[];autosize=1;strokeColor=none;fillColor=none;" vertex="1" parent="1">
          <mxGeometry x="470" y="345" width="100" height="30" as="geometry" />
        </mxCell>
        <mxCell id="BweIx_ij9CedRMp09utN-16" value="&lt;b&gt;.com TLD details&lt;/b&gt;" style="text;html=1;align=center;verticalAlign=middle;resizable=0;points=[];autosize=1;strokeColor=none;fillColor=none;" vertex="1" parent="1">
          <mxGeometry x="350" y="280" width="120" height="30" as="geometry" />
        </mxCell>
        <mxCell id="BweIx_ij9CedRMp09utN-20" style="edgeStyle=orthogonalEdgeStyle;rounded=0;orthogonalLoop=1;jettySize=auto;html=1;entryX=1;entryY=0.5;entryDx=0;entryDy=0;" edge="1" parent="1" source="BweIx_ij9CedRMp09utN-17" target="BweIx_ij9CedRMp09utN-19">
          <mxGeometry relative="1" as="geometry" />
        </mxCell>
        <mxCell id="BweIx_ij9CedRMp09utN-25" style="edgeStyle=orthogonalEdgeStyle;rounded=0;orthogonalLoop=1;jettySize=auto;html=1;" edge="1" parent="1" source="BweIx_ij9CedRMp09utN-17" target="BweIx_ij9CedRMp09utN-24">
          <mxGeometry relative="1" as="geometry" />
        </mxCell>
        <mxCell id="BweIx_ij9CedRMp09utN-17" value="&lt;b&gt;.com TLD&lt;/b&gt;" style="rounded=1;whiteSpace=wrap;html=1;fillColor=#dae8fc;gradientColor=#7ea6e0;strokeColor=#6c8ebf;" vertex="1" parent="1">
          <mxGeometry x="236.51999999999998" y="285" width="120" height="60" as="geometry" />
        </mxCell>
        <mxCell id="BweIx_ij9CedRMp09utN-23" style="edgeStyle=orthogonalEdgeStyle;rounded=0;orthogonalLoop=1;jettySize=auto;html=1;entryX=1;entryY=0.5;entryDx=0;entryDy=0;" edge="1" parent="1" source="BweIx_ij9CedRMp09utN-19" target="BweIx_ij9CedRMp09utN-22">
          <mxGeometry relative="1" as="geometry" />
        </mxCell>
        <mxCell id="BweIx_ij9CedRMp09utN-19" value="&lt;b&gt;Domain&lt;br&gt;Authority&lt;/b&gt;" style="rounded=1;whiteSpace=wrap;html=1;fillColor=#d5e8d4;gradientColor=#97d077;strokeColor=#82b366;" vertex="1" parent="1">
          <mxGeometry x="40" y="285" width="120" height="60" as="geometry" />
        </mxCell>
        <mxCell id="BweIx_ij9CedRMp09utN-21" value="&lt;b&gt;Godaddy, AWS, Google, Hostinger, etc&lt;/b&gt;" style="text;html=1;align=center;verticalAlign=middle;resizable=0;points=[];autosize=1;strokeColor=none;fillColor=none;" vertex="1" parent="1">
          <mxGeometry x="-10" y="360" width="240" height="30" as="geometry" />
        </mxCell>
        <mxCell id="BweIx_ij9CedRMp09utN-22" value="&lt;b&gt;Godaddy&lt;/b&gt;" style="rounded=1;whiteSpace=wrap;html=1;fillColor=#f8cecc;gradientColor=#ea6b66;strokeColor=#b85450;" vertex="1" parent="1">
          <mxGeometry x="-180" y="285" width="120" height="60" as="geometry" />
        </mxCell>
        <mxCell id="BweIx_ij9CedRMp09utN-24" value="Amazon Route 53" style="sketch=0;outlineConnect=0;fontColor=#232F3E;gradientColor=none;strokeColor=#ffffff;fillColor=#232F3E;dashed=0;verticalLabelPosition=middle;verticalAlign=bottom;align=center;html=1;whiteSpace=wrap;fontSize=10;fontStyle=1;spacing=3;shape=mxgraph.aws4.productIcon;prIcon=mxgraph.aws4.route_53;" vertex="1" parent="1">
          <mxGeometry x="59.99999999999997" y="430" width="80" height="110" as="geometry" />
        </mxCell>
      </root>
    </mxGraphModel>
  </diagram>
</mxfile>
